# xmcd
#
# Track frame offsets: 
#        150
#        12727
#        24367
#        35495
#        51185
#        61017
#        75235
#        88672
#        99980
#        116220
#        128882
#        142047
#        155877
#
# Disc length: 2241 seconds
#
# Revision: 0
# Processed by: cddbd v1.5.1PL0 Copyright (c) Steve Scherf et al.
# Submitted via: ExactAudioCopy v0.95a5
#
DISCID=a908bf0d
DTITLE=REBETIKA - Various - REBETIKA - CD 2
DYEAR=1900
DGENRE=Greek
TTITLE0=Frankosiriani - Dinos Dolianitis
TTITLE1=Xariklaki - Roza Eskenazi
TTITLE2=Pente Xronia Dikasmenos (H Foni to Argile) - Vagias
TTITLE3=San Pethano Sto Karavi - Apostolos Nikolaides
TTITLE4=Eisouna Ksipoliti - Lakis Yfantis
TTITLE5=Den Roto Pia Eisai - Dinos Dolianitis
TTITLE6=Einai Ola Mavra - Apostolou
TTITLE7=Omorfa - Solo: Manolis Xiotis
TTITLE8=Opou Giorgos kai Malama - Anna Xrisafi
TTITLE9=Papse Paranoma na Zeis - Rena Dalia
TTITLE10=Fere mas Kapela Krasi - Apostolou
TTITLE11=Tha Methao kai Tha Ta Spao - Roza Eskenazi
TTITLE12=Extra
EXTD=
EXTT0=
EXTT1=
EXTT2=
EXTT3=
EXTT4=
EXTT5=
EXTT6=
EXTT7=
EXTT8=
EXTT9=
EXTT10=
EXTT11=
EXTT12=
PLAYORDER=
